<svg width="24" height="24" viewBox="0 0 24 24" fill="none" xmlns="http://www.w3.org/2000/svg">
<path d="M5.00042 21H19.0004M11.5624 3.266C11.6056 3.18761 11.669 3.12223 11.746 3.0767C11.8231 3.03117 11.9109 3.00716 12.0004 3.00716C12.0899 3.00716 12.1778 3.03117 12.2548 3.0767C12.3319 3.12223 12.3953 3.18761 12.4384 3.266L15.3904 8.87C15.4608 8.99976 15.5591 9.11233 15.6781 9.19962C15.7972 9.28691 15.9341 9.34675 16.079 9.37486C16.224 9.40297 16.3733 9.39863 16.5164 9.36218C16.6594 9.32572 16.7926 9.25804 16.9064 9.164L21.1834 5.5C21.2655 5.43322 21.3667 5.39422 21.4724 5.3886C21.5781 5.38299 21.6828 5.41105 21.7715 5.46875C21.8602 5.52645 21.9284 5.61081 21.9661 5.70969C22.0038 5.80857 22.0092 5.91687 21.9814 6.019L19.1474 16.265C19.0896 16.4747 18.9649 16.6598 18.7924 16.7922C18.6199 16.9247 18.4089 16.9973 18.1914 16.999H5.81042C5.59276 16.9975 5.38153 16.925 5.20882 16.7925C5.0361 16.66 4.91132 16.4748 4.85342 16.265L2.02042 6.02C1.99267 5.91787 1.99805 5.80957 2.03577 5.71069C2.07348 5.61181 2.14161 5.52745 2.23032 5.46975C2.31904 5.41205 2.42378 5.38399 2.52946 5.3896C2.63515 5.39522 2.73632 5.43422 2.81842 5.501L7.09442 9.165C7.20822 9.25904 7.34143 9.32672 7.48449 9.36318C7.62754 9.39964 7.7769 9.40397 7.92182 9.37586C8.06675 9.34775 8.20366 9.28791 8.32272 9.20062C8.44177 9.11333 8.54003 9.00076 8.61042 8.871L11.5624 3.266Z" stroke="#1A72FF" stroke-width="2" stroke-linecap="round" stroke-linejoin="round"/>
</svg>
