<svg width="17" height="16" viewBox="0 0 17 16" fill="none" xmlns="http://www.w3.org/2000/svg">
<path d="M16 7.58335C16.0028 8.68323 15.7459 9.76825 15.25 10.75C14.662 11.9265 13.7581 12.916 12.6395 13.6077C11.5209 14.2995 10.2319 14.6662 8.91665 14.6667C7.81677 14.6695 6.73175 14.4126 5.74999 13.9167L1 15.5L2.58333 10.75C2.08744 9.76825 1.83046 8.68323 1.83333 7.58335C1.83384 6.26815 2.20051 4.97906 2.89226 3.86048C3.58402 2.74189 4.57354 1.83799 5.74999 1.25002C6.73175 0.754133 7.81677 0.497156 8.91665 0.500024H9.33332C11.0703 0.59585 12.7109 1.32899 13.9409 2.55907C15.171 3.78915 15.9041 5.42973 16 7.16668V7.58335Z" stroke="#7B7B7B" stroke-linecap="round" stroke-linejoin="round"/>
</svg>
