<svg width="19" height="20" viewBox="0 0 19 20" fill="none" xmlns="http://www.w3.org/2000/svg">
<path d="M16.4979 3.89956C16.0935 3.49503 15.6134 3.17412 15.085 2.95517C14.5566 2.73623 13.9902 2.62354 13.4183 2.62354C12.8463 2.62354 12.2799 2.73623 11.7515 2.95517C11.2231 3.17412 10.743 3.49503 10.3387 3.89956L9.49952 4.73873L8.66036 3.89956C7.8436 3.08281 6.73584 2.62396 5.58077 2.62396C4.42571 2.62396 3.31795 3.08281 2.50119 3.89956C1.68443 4.71632 1.22559 5.82408 1.22559 6.97915C1.22559 8.13421 1.68443 9.24197 2.50119 10.0587L3.34036 10.8979L9.49952 17.0571L15.6587 10.8979L16.4979 10.0587C16.9024 9.65438 17.2233 9.17429 17.4422 8.64589C17.6612 8.11748 17.7739 7.55112 17.7739 6.97915C17.7739 6.40718 17.6612 5.84081 17.4422 5.31241C17.2233 4.784 16.9024 4.30391 16.4979 3.89956Z" fill="#1A72FF" stroke="#262626" stroke-linecap="round" stroke-linejoin="round"/>
</svg>
