<svg width="22" height="20" viewBox="0 0 22 20" fill="none" xmlns="http://www.w3.org/2000/svg">
<path d="M10.5621 1.26617C10.6052 1.18777 10.6686 1.1224 10.7457 1.07687C10.8227 1.03134 10.9106 1.00732 11.0001 1.00732C11.0895 1.00732 11.1774 1.03134 11.2544 1.07687C11.3315 1.1224 11.3949 1.18777 11.4381 1.26617L14.3901 6.87017C14.4605 6.99993 14.5587 7.1125 14.6778 7.19979C14.7968 7.28708 14.9337 7.34692 15.0787 7.37503C15.2236 7.40313 15.3729 7.3988 15.516 7.36235C15.659 7.32589 15.7923 7.25821 15.9061 7.16417L20.1831 3.50017C20.2652 3.43339 20.3663 3.39439 20.472 3.38877C20.5777 3.38315 20.6824 3.41121 20.7712 3.46891C20.8599 3.52662 20.928 3.61098 20.9657 3.70986C21.0034 3.80874 21.0088 3.91704 20.9811 4.01917L18.1471 14.2652C18.0892 14.4748 17.9646 14.6599 17.7921 14.7924C17.6195 14.9248 17.4086 14.9974 17.1911 14.9992H4.81006C4.59239 14.9977 4.38117 14.9252 4.20845 14.7927C4.03573 14.6602 3.91095 14.475 3.85306 14.2652L1.02006 4.02017C0.992308 3.91804 0.997679 3.80974 1.0354 3.71086C1.07312 3.61198 1.14124 3.52762 1.22996 3.46991C1.31868 3.41221 1.42342 3.38415 1.5291 3.38977C1.63478 3.39539 1.73595 3.43439 1.81806 3.50117L6.09406 7.16517C6.20786 7.25921 6.34107 7.32689 6.48412 7.36335C6.62718 7.3998 6.77653 7.40413 6.92146 7.37603C7.06639 7.34792 7.20329 7.28808 7.32235 7.20079C7.44141 7.1135 7.53966 7.00093 7.61006 6.87117L10.5621 1.26617ZM4.00006 19.0002H18.0001H4.00006Z" fill="#FFF260"/>
<path d="M4.00006 19.0002H18.0001M10.5621 1.26617C10.6052 1.18777 10.6686 1.1224 10.7457 1.07687C10.8227 1.03134 10.9106 1.00732 11.0001 1.00732C11.0895 1.00732 11.1774 1.03134 11.2544 1.07687C11.3315 1.1224 11.3949 1.18777 11.4381 1.26617L14.3901 6.87017C14.4605 6.99993 14.5587 7.1125 14.6778 7.19979C14.7968 7.28708 14.9337 7.34692 15.0787 7.37503C15.2236 7.40313 15.3729 7.3988 15.516 7.36235C15.659 7.32589 15.7923 7.25821 15.9061 7.16417L20.1831 3.50017C20.2652 3.43339 20.3663 3.39439 20.472 3.38877C20.5777 3.38315 20.6824 3.41121 20.7712 3.46891C20.8599 3.52662 20.928 3.61098 20.9657 3.70986C21.0034 3.80874 21.0088 3.91704 20.9811 4.01917L18.1471 14.2652C18.0892 14.4748 17.9646 14.6599 17.7921 14.7924C17.6195 14.9248 17.4086 14.9974 17.1911 14.9992H4.81006C4.59239 14.9977 4.38117 14.9252 4.20845 14.7927C4.03573 14.6602 3.91095 14.475 3.85306 14.2652L1.02006 4.02017C0.992308 3.91804 0.997679 3.80974 1.0354 3.71086C1.07312 3.61198 1.14124 3.52761 1.22996 3.46991C1.31868 3.41221 1.42342 3.38415 1.5291 3.38977C1.63478 3.39539 1.73595 3.43439 1.81806 3.50117L6.09406 7.16517C6.20786 7.25921 6.34107 7.32689 6.48412 7.36335C6.62718 7.3998 6.77653 7.40413 6.92146 7.37603C7.06639 7.34792 7.20329 7.28808 7.32235 7.20079C7.44141 7.1135 7.53966 7.00093 7.61006 6.87117L10.5621 1.26617Z" stroke="#262626" stroke-width="2" stroke-linecap="round" stroke-linejoin="round"/>
</svg>
