<svg width="22" height="20" viewBox="0 0 22 20" fill="none" xmlns="http://www.w3.org/2000/svg">
<path d="M10.5619 1.26617C10.6051 1.18777 10.6685 1.1224 10.7456 1.07687C10.8226 1.03134 10.9104 1.00732 10.9999 1.00732C11.0894 1.00732 11.1773 1.03134 11.2543 1.07687C11.3314 1.1224 11.3948 1.18777 11.4379 1.26617L14.3899 6.87017C14.4603 6.99993 14.5586 7.1125 14.6776 7.19979C14.7967 7.28708 14.9336 7.34692 15.0785 7.37503C15.2235 7.40313 15.3728 7.3988 15.5159 7.36235C15.6589 7.32589 15.7921 7.25821 15.9059 7.16417L20.1829 3.50017C20.265 3.43339 20.3662 3.39439 20.4719 3.38877C20.5776 3.38315 20.6823 3.41121 20.771 3.46891C20.8598 3.52662 20.9279 3.61098 20.9656 3.70986C21.0033 3.80874 21.0087 3.91704 20.9809 4.01917L18.1469 14.2652C18.0891 14.4748 17.9645 14.6599 17.7919 14.7924C17.6194 14.9248 17.4084 14.9974 17.1909 14.9992H4.80994C4.59227 14.9977 4.38105 14.9252 4.20833 14.7927C4.03561 14.6602 3.91083 14.475 3.85294 14.2652L1.01994 4.02017C0.992186 3.91804 0.997557 3.80974 1.03528 3.71086C1.073 3.61198 1.14112 3.52762 1.22984 3.46991C1.31855 3.41221 1.42329 3.38415 1.52898 3.38977C1.63466 3.39539 1.73583 3.43439 1.81794 3.50117L6.09394 7.16517C6.20773 7.25921 6.34094 7.32689 6.484 7.36335C6.62705 7.3998 6.77641 7.40413 6.92134 7.37603C7.06626 7.34792 7.20317 7.28808 7.32223 7.20079C7.44129 7.1135 7.53954 7.00093 7.60994 6.87117L10.5619 1.26617ZM3.99994 19.0002H17.9999H3.99994Z" fill="#1A72FF"/>
<path d="M3.99994 19.0002H17.9999M10.5619 1.26617C10.6051 1.18777 10.6685 1.1224 10.7456 1.07687C10.8226 1.03134 10.9104 1.00732 10.9999 1.00732C11.0894 1.00732 11.1773 1.03134 11.2543 1.07687C11.3314 1.1224 11.3948 1.18777 11.4379 1.26617L14.3899 6.87017C14.4603 6.99993 14.5586 7.1125 14.6776 7.19979C14.7967 7.28708 14.9336 7.34692 15.0785 7.37503C15.2235 7.40313 15.3728 7.3988 15.5159 7.36235C15.6589 7.32589 15.7921 7.25821 15.9059 7.16417L20.1829 3.50017C20.265 3.43339 20.3662 3.39439 20.4719 3.38877C20.5776 3.38315 20.6823 3.41121 20.771 3.46891C20.8598 3.52662 20.9279 3.61098 20.9656 3.70986C21.0033 3.80874 21.0087 3.91704 20.9809 4.01917L18.1469 14.2652C18.0891 14.4748 17.9645 14.6599 17.7919 14.7924C17.6194 14.9248 17.4084 14.9974 17.1909 14.9992H4.80994C4.59227 14.9977 4.38105 14.9252 4.20833 14.7927C4.03561 14.6602 3.91083 14.475 3.85294 14.2652L1.01994 4.02017C0.992186 3.91804 0.997557 3.80974 1.03528 3.71086C1.073 3.61198 1.14112 3.52761 1.22984 3.46991C1.31855 3.41221 1.42329 3.38415 1.52898 3.38977C1.63466 3.39539 1.73583 3.43439 1.81794 3.50117L6.09394 7.16517C6.20773 7.25921 6.34094 7.32689 6.484 7.36335C6.62705 7.3998 6.77641 7.40413 6.92134 7.37603C7.06626 7.34792 7.20317 7.28808 7.32223 7.20079C7.44129 7.1135 7.53954 7.00093 7.60994 6.87117L10.5619 1.26617Z" stroke="#262626" stroke-width="2" stroke-linecap="round" stroke-linejoin="round"/>
</svg>
