<svg width="16" height="16" viewBox="0 0 16 16" fill="none" xmlns="http://www.w3.org/2000/svg">
<path d="M9.64511 12.8531C9.59854 12.8067 9.5616 12.7515 9.53639 12.6907C9.51119 12.63 9.49821 12.5649 9.49821 12.4991C9.49821 12.4333 9.51119 12.3682 9.53639 12.3075C9.5616 12.2467 9.59854 12.1916 9.64511 12.1451L12.2921 9.49911H7.49911C6.04042 9.49911 4.64147 8.91964 3.61002 7.88819C2.57857 6.85674 1.99911 5.4578 1.99911 3.99911C1.99911 3.8665 2.05178 3.73932 2.14555 3.64555C2.23932 3.55178 2.3665 3.49911 2.49911 3.49911C2.63171 3.49911 2.75889 3.55178 2.85266 3.64555C2.94643 3.73932 2.99911 3.8665 2.99911 3.99911C2.99911 5.19258 3.47321 6.33717 4.31713 7.18109C5.16104 8.025 6.30563 8.49911 7.49911 8.49911H12.2921L9.64511 5.85311C9.59862 5.80662 9.56174 5.75143 9.53658 5.69069C9.51142 5.62995 9.49847 5.56485 9.49847 5.49911C9.49847 5.43336 9.51142 5.36826 9.53658 5.30752C9.56174 5.24678 9.59862 5.19159 9.64511 5.14511C9.69159 5.09862 9.74678 5.06174 9.80752 5.03658C9.86826 5.01142 9.93336 4.99848 9.99911 4.99848C10.0649 4.99848 10.13 5.01142 10.1907 5.03658C10.2514 5.06174 10.3066 5.09862 10.3531 5.14511L13.8531 8.64511C13.8997 8.69155 13.9366 8.74673 13.9618 8.80747C13.987 8.86822 14 8.93334 14 8.99911C14 9.06487 13.987 9.12999 13.9618 9.19074C13.9366 9.25149 13.8997 9.30666 13.8531 9.35311L10.3531 12.8531C10.3067 12.8997 10.2515 12.9366 10.1907 12.9618C10.13 12.987 10.0649 13 9.99911 13C9.93334 13 9.86822 12.987 9.80747 12.9618C9.74673 12.9366 9.69155 12.8997 9.64511 12.8531Z" fill="black"/>
</svg>
