<svg width="77" height="77" viewBox="0 0 77 77" fill="none" xmlns="http://www.w3.org/2000/svg">
<g filter="url(#filter0_d_2258_3195)">
<circle cx="38.5" cy="34.5" r="28.5" fill="white"/>
</g>
<path d="M37.9727 45.5835H51.0352H37.9727Z" fill="black"/>
<path d="M37.9727 45.5835H51.0352" stroke="black" stroke-width="2" stroke-linecap="round" stroke-linejoin="round"/>
<path d="M44.5039 21.6357C45.0813 21.0583 45.8644 20.7339 46.681 20.7339C47.0853 20.7339 47.4857 20.8135 47.8592 20.9683C48.2328 21.123 48.5722 21.3498 48.8581 21.6357C49.144 21.9216 49.3708 22.261 49.5255 22.6345C49.6802 23.0081 49.7599 23.4084 49.7599 23.8127C49.7599 24.2171 49.6802 24.6174 49.5255 24.991C49.3708 25.3645 49.144 25.7039 48.8581 25.9898L30.7157 44.1322L24.9102 45.5836L26.3615 39.778L44.5039 21.6357Z" stroke="black" stroke-width="2" stroke-linecap="round" stroke-linejoin="round"/>
<defs>
<filter id="filter0_d_2258_3195" x="0" y="0" width="77" height="77" filterUnits="userSpaceOnUse" color-interpolation-filters="sRGB">
<feFlood flood-opacity="0" result="BackgroundImageFix"/>
<feColorMatrix in="SourceAlpha" type="matrix" values="0 0 0 0 0 0 0 0 0 0 0 0 0 0 0 0 0 0 127 0" result="hardAlpha"/>
<feOffset dy="4"/>
<feGaussianBlur stdDeviation="5"/>
<feComposite in2="hardAlpha" operator="out"/>
<feColorMatrix type="matrix" values="0 0 0 0 0 0 0 0 0 0 0 0 0 0 0 0 0 0 0.25 0"/>
<feBlend mode="normal" in2="BackgroundImageFix" result="effect1_dropShadow_2258_3195"/>
<feBlend mode="normal" in="SourceGraphic" in2="effect1_dropShadow_2258_3195" result="shape"/>
</filter>
</defs>
</svg>
