<svg width="24" height="24" viewBox="0 0 24 24" fill="none" xmlns="http://www.w3.org/2000/svg">
<path d="M12 3C7.02991 3 3 7.02991 3 12C3 16.9701 7.02991 21 12 21C16.9701 21 21 16.9701 21 12C21 7.02991 16.9701 3 12 3ZM7.5 10.1719C7.50515 9.91954 7.60901 9.67928 7.78929 9.50264C7.96956 9.326 8.2119 9.22707 8.46429 9.22707C8.71667 9.22707 8.95901 9.326 9.13929 9.50264C9.31956 9.67928 9.42342 9.91954 9.42857 10.1719C9.42342 10.4242 9.31956 10.6645 9.13929 10.8411C8.95901 11.0177 8.71667 11.1167 8.46429 11.1167C8.2119 11.1167 7.96956 11.0177 7.78929 10.8411C7.60901 10.6645 7.50515 10.4242 7.5 10.1719ZM12 15.6362C10.2824 15.6362 8.87411 14.2842 8.78571 12.5906C8.78462 12.5689 8.78797 12.5471 8.79556 12.5267C8.80315 12.5062 8.81481 12.4875 8.82985 12.4718C8.84488 12.456 8.86297 12.4434 8.88301 12.4348C8.90305 12.4263 8.92463 12.4218 8.94643 12.4219H9.91272C9.9971 12.4219 10.0694 12.4862 10.0754 12.5705C10.1518 13.565 10.9855 14.3504 12 14.3504C13.0145 14.3504 13.8502 13.565 13.9246 12.5705C13.9306 12.4862 14.0029 12.4219 14.0873 12.4219H15.0536C15.0754 12.4218 15.0969 12.4263 15.117 12.4348C15.137 12.4434 15.1551 12.456 15.1702 12.4718C15.1852 12.4875 15.1969 12.5062 15.2044 12.5267C15.212 12.5471 15.2154 12.5689 15.2143 12.5906C15.1259 14.2842 13.7176 15.6362 12 15.6362ZM15.5357 11.1362C15.2834 11.131 15.0431 11.0272 14.8665 10.8469C14.6898 10.6666 14.5909 10.4243 14.5909 10.1719C14.5909 9.91949 14.6898 9.67715 14.8665 9.49688C15.0431 9.3166 15.2834 9.21274 15.5357 9.20759C15.7881 9.21274 16.0283 9.3166 16.2049 9.49688C16.3816 9.67715 16.4805 9.91949 16.4805 10.1719C16.4805 10.4243 16.3816 10.6666 16.2049 10.8469C16.0283 11.0272 15.7881 11.131 15.5357 11.1362Z" fill="#555555"/>
</svg>
