<svg width="24" height="24" viewBox="0 0 24 24" fill="none" xmlns="http://www.w3.org/2000/svg">
<path d="M9.8 22.4V17.572C9.26733 17.7647 8.70067 17.8667 8.1 17.8667C5.26667 17.8667 3 15.6 3 12.7667C3 11.3273 3.56667 10.0353 4.54133 9.106C4.28067 8.494 4.13333 7.814 4.13333 7.1C4.13333 4.26667 6.4 2 9.23333 2C11.0013 2 12.5653 2.90667 13.4833 4.26667H13.7667C14.5852 4.26667 15.3958 4.4279 16.1521 4.74115C16.9083 5.05441 17.5955 5.51355 18.1743 6.09237C18.7531 6.67119 19.2123 7.35834 19.5255 8.11461C19.8388 8.87087 20 9.68143 20 10.5C20 11.3186 19.8388 12.1291 19.5255 12.8854C19.2123 13.6417 18.7531 14.3288 18.1743 14.9076C17.5955 15.4865 16.9083 15.9456 16.1521 16.2588C15.3958 16.5721 14.5852 16.7333 13.7667 16.7333C13.2 16.7333 12.6333 16.654 12.0667 16.4953V22.4H9.8Z" fill="#555555"/>
</svg>
