<svg width="24" height="24" viewBox="0 0 24 24" fill="none" xmlns="http://www.w3.org/2000/svg">
<path fill-rule="evenodd" clip-rule="evenodd" d="M4 4C4 3.20435 4.31607 2.44129 4.87868 1.87868C5.44129 1.31607 6.20435 1 7 1H17C17.7956 1 18.5587 1.31607 19.1213 1.87868C19.6839 2.44129 20 3.20435 20 4V20.028C20 21.248 18.62 21.958 17.628 21.249L12 17.229L6.372 21.249C5.379 21.959 4 21.249 4 20.029V4ZM7 3C6.73478 3 6.48043 3.10536 6.29289 3.29289C6.10536 3.48043 6 3.73478 6 4V19.057L11.128 15.394C11.3824 15.2122 11.6873 15.1145 12 15.1145C12.3127 15.1145 12.6176 15.2122 12.872 15.394L18 19.057V4C18 3.73478 17.8946 3.48043 17.7071 3.29289C17.5196 3.10536 17.2652 3 17 3H7Z" fill="black"/>
</svg>
