<svg width="24" height="24" viewBox="0 0 24 24" fill="none" xmlns="http://www.w3.org/2000/svg">
<path fill-rule="evenodd" clip-rule="evenodd" d="M5.91795 2.00623L15.1251 2.00156V5.58941L5.91795 5.59408C5.50209 5.59455 5.097 5.46189 4.76199 5.21551L3.26952 4.11407C3.22055 4.07786 3.18076 4.03066 3.15334 3.97628C3.12592 3.9219 3.11164 3.86184 3.11164 3.80093C3.11164 3.74003 3.12592 3.67997 3.15334 3.62559C3.18076 3.57121 3.22055 3.52401 3.26952 3.4878L4.76354 2.3848C5.09751 2.1385 5.50142 2.00532 5.91639 2.00467L5.91795 2.00623ZM18.9155 5.58629L17.0725 5.58785V2H18.9218C19.9095 2.01558 20.6651 2.89268 20.6651 3.79159C20.6651 4.69205 19.9095 5.57071 18.9218 5.58629H18.9155ZM9.67561 9.18504C10.1975 9.3938 10.6415 9.62281 11.0263 9.85027V22.9179C10.4324 22.4723 9.78298 22.1057 9.09451 21.8274C7.94945 21.3694 6.29808 20.9908 3.77895 20.9908C3.57236 20.9908 3.37423 20.9088 3.22815 20.7627C3.08207 20.6166 3 20.4185 3 20.2119V9.01367C3 8.80708 3.08207 8.60895 3.22815 8.46287C3.37423 8.31679 3.57236 8.23472 3.77895 8.23472C6.45854 8.23472 8.31245 8.63822 9.67561 9.18504ZM14.9039 21.8274C14.0627 22.1655 13.4722 22.5534 12.9721 22.9164V9.85027C13.3569 9.62281 13.8025 9.3938 14.3244 9.18504C15.6876 8.63822 17.5415 8.23472 20.221 8.23472C20.4276 8.23472 20.6258 8.31679 20.7718 8.46287C20.9179 8.60895 21 8.80708 21 9.01367V20.2119C21 20.4185 20.9179 20.6166 20.7718 20.7627C20.6258 20.9088 20.4276 20.9908 20.221 20.9908C17.7019 20.9908 16.0505 21.3678 14.9039 21.8274Z" fill="#555555"/>
</svg>
