<svg width="24" height="24" viewBox="0 0 24 24" fill="none" xmlns="http://www.w3.org/2000/svg">
<path d="M4.8 20.1C4.305 20.1 3.8814 19.9239 3.5292 19.5717C3.177 19.2195 3.0006 18.7956 3 18.3V8.4C3 7.905 3.1764 7.4814 3.5292 7.1292C3.882 6.777 4.3056 6.6006 4.8 6.6H8.4V4.8C8.4 4.305 8.5764 3.8814 8.9292 3.5292C9.282 3.177 9.7056 3.0006 10.2 3H13.8C14.295 3 14.7189 3.1764 15.0717 3.5292C15.4245 3.882 15.6006 4.3056 15.6 4.8V6.6H19.2C19.695 6.6 20.1189 6.7764 20.4717 7.1292C20.8245 7.482 21.0006 7.9056 21 8.4V18.3C21 18.795 20.8239 19.2189 20.4717 19.5717C20.1195 19.9245 19.6956 20.1006 19.2 20.1H4.8ZM10.2 6.6H13.8V4.8H10.2V6.6Z" fill="#555555"/>
</svg>
