<svg width="17" height="15" viewBox="0 0 17 15" fill="none" xmlns="http://www.w3.org/2000/svg">
<path d="M16.2504 1.8743V5.6243C16.2504 5.79006 16.1846 5.94903 16.0674 6.06624C15.9501 6.18345 15.7912 6.2493 15.6254 6.2493H11.8754C11.7517 6.24939 11.6308 6.21279 11.5279 6.14412C11.4251 6.07545 11.3449 5.97781 11.2975 5.86354C11.2502 5.74928 11.2378 5.62353 11.262 5.50223C11.2861 5.38093 11.3457 5.26952 11.4332 5.18211L12.7613 3.85398L11.9371 3.10008L11.9176 3.08133C11.0489 2.21296 9.9436 1.61981 8.73975 1.37597C7.53591 1.13214 6.2869 1.24843 5.14877 1.71031C4.01063 2.1722 3.03382 2.95921 2.34036 3.97302C1.64691 4.98683 1.26755 6.1825 1.24968 7.41066C1.23181 8.63882 1.57622 9.84502 2.23989 10.8786C2.90356 11.9121 3.85706 12.7272 4.98128 13.222C6.10549 13.7168 7.35059 13.8694 8.56101 13.6607C9.77144 13.452 10.8935 12.8912 11.7871 12.0485C11.8468 11.9921 11.917 11.948 11.9937 11.9187C12.0704 11.8894 12.1521 11.8755 12.2342 11.8777C12.3163 11.88 12.3971 11.8985 12.4721 11.932C12.5471 11.9655 12.6147 12.0135 12.6711 12.0731C12.7275 12.1328 12.7717 12.203 12.801 12.2797C12.8303 12.3564 12.8442 12.4381 12.8419 12.5202C12.8396 12.6023 12.8212 12.6831 12.7876 12.7581C12.7541 12.8331 12.7062 12.9007 12.6465 12.9571C11.2568 14.2731 9.4143 15.0043 7.50041 14.9993H7.39729C6.16896 14.9825 4.96357 14.6642 3.88705 14.0724C2.81054 13.4806 1.89587 12.6335 1.22343 11.6054C0.550987 10.5774 0.141367 9.39989 0.0305696 8.17645C-0.0802277 6.95301 0.11119 5.72109 0.587999 4.58895C1.06481 3.45682 1.81241 2.45913 2.76509 1.68359C3.71778 0.908046 4.84638 0.378388 6.0517 0.141167C7.25703 -0.0960537 8.50217 -0.033574 9.67769 0.323115C10.8532 0.679803 11.9231 1.31978 12.7934 2.1868L13.6473 2.96805L15.1832 1.42898C15.2708 1.34129 15.3825 1.28161 15.5041 1.25756C15.6257 1.2335 15.7517 1.24614 15.8661 1.29387C15.9805 1.34161 16.0781 1.42228 16.1465 1.52563C16.215 1.62898 16.2511 1.75035 16.2504 1.8743Z" fill="#777777"/>
</svg>
